<?xml version="1.0" encoding="UTF-8" standalone="no"?>
<svg
   xmlns:dc="http://purl.org/dc/elements/1.1/"
   xmlns:cc="http://creativecommons.org/ns#"
   xmlns:rdf="http://www.w3.org/1999/02/22-rdf-syntax-ns#"
   xmlns:svg="http://www.w3.org/2000/svg"
   xmlns="http://www.w3.org/2000/svg"
   xmlns:sodipodi="http://sodipodi.sourceforge.net/DTD/sodipodi-0.dtd"
   xmlns:inkscape="http://www.inkscape.org/namespaces/inkscape"
   inkscape:export-ydpi="96"
   inkscape:export-xdpi="96"
   inkscape:export-filename="rhsummit-2020-placeholder.png"
   inkscape:version="1.0beta2 (2b71d25d45, 2019-12-03)"
   sodipodi:docname="rhsummit-2020-placeholder.svg"
   viewBox="0 0 1552 1080"
   height="1080"
   width="1552"
   id="svg2"
   version="1.1">
  <metadata
     id="metadata8">
    <rdf:RDF>
      <cc:Work
         rdf:about="">
        <dc:format>image/svg+xml</dc:format>
        <dc:type
           rdf:resource="http://purl.org/dc/dcmitype/StillImage" />
        <dc:title></dc:title>
      </cc:Work>
    </rdf:RDF>
  </metadata>
  <defs
     id="defs6" />
  <sodipodi:namedview
     inkscape:current-layer="g10"
     inkscape:cy="536.23047"
     inkscape:cx="748.3064"
     inkscape:zoom="1"
     inkscape:showpageshadow="false"
     showgrid="false"
     id="namedview4"
     inkscape:window-height="480"
     inkscape:window-width="640"
     inkscape:pageshadow="2"
     inkscape:pageopacity="1"
     guidetolerance="10"
     gridtolerance="10"
     objecttolerance="10"
     borderopacity="1"
     inkscape:document-rotation="0"
     bordercolor="#666666"
     pagecolor="#000000" />
  <g
     id="g10"
     inkscape:label="Image"
     inkscape:groupmode="layer">
    <g
       style="stroke-width:0.132143"
       transform="matrix(7.5675676,0,0,7.5675676,507.42703,224)"
       id="g1094">
      <polygon
         style="stroke-width:0.132143"
         class="st0"
         points="0,0 0,31.64 30.24,31.64 35.59,37 40.94,31.64 70.98,31.64 70.98,0 "
         id="polygon1062" />
      <path
         style="stroke-width:0.132143"
         inkscape:connector-curvature="0"
         class="st1"
         d="m 8.39,21.17 c 0.94,0.91 2.18,1.43 3.49,1.46 1.19,0 1.89,-0.38 1.89,-1 0,-0.62 -0.4,-0.87 -1.45,-1.05 L 10.01,20.17 C 8.49,20.08 7.32,18.81 7.35,17.29 c 0,-2 1.62,-3.27 4.31,-3.27 1.59,0.01 3.14,0.54 4.41,1.5 l -1.37,1.91 c -0.89,-0.78 -2.03,-1.23 -3.21,-1.27 -1.05,0 -1.7,0.35 -1.7,0.92 0,0.57 0.36,0.78 1.24,0.93 l 2.18,0.36 c 2,0.33 3.09,1.37 3.09,3 0,2.14 -1.75,3.45 -4.6,3.45 -1.74,0 -3.42,-0.61 -4.75,-1.72 z"
         id="path1064" />
      <path
         style="stroke-width:0.132143"
         inkscape:connector-curvature="0"
         class="st1"
         d="m 19.73,21.28 c -0.05,0.74 0.51,1.39 1.25,1.44 0.06,0 0.12,0 0.19,0 0.54,0.02 1.07,-0.21 1.42,-0.62 v -5.38 h 2.43 v 7.93 H 22.59 V 24.1 c -0.6,0.46 -1.34,0.71 -2.1,0.7 -1.68,0.07 -3.1,-1.24 -3.17,-2.92 0,-0.09 0,-0.18 0,-0.27 v -4.89 h 2.43 z"
         id="path1066" />
      <path
         style="stroke-width:0.132143"
         inkscape:connector-curvature="0"
         class="st1"
         d="m 26.49,16.72 h 2.43 v 0.51 c 0.57,-0.44 1.28,-0.67 2,-0.66 0.92,-0.03 1.79,0.38 2.36,1.1 0.66,-0.72 1.6,-1.12 2.58,-1.09 1.66,-0.04 3.03,1.27 3.08,2.92 0,0.09 0,0.18 -0.01,0.27 v 4.89 H 36.49 V 20.1 c 0.08,-0.71 -0.42,-1.35 -1.13,-1.43 -0.05,-0.01 -0.11,-0.01 -0.16,-0.01 -0.5,-0.02 -0.98,0.2 -1.3,0.59 0,0.17 0,0.33 0,0.51 v 4.89 H 31.49 V 20.1 c 0.08,-0.71 -0.42,-1.35 -1.13,-1.43 -0.05,-0.01 -0.11,-0.01 -0.16,-0.01 -0.49,-0.03 -0.97,0.18 -1.28,0.57 v 5.42 h -2.43 z"
         id="path1068" />
      <path
         style="stroke-width:0.132143"
         inkscape:connector-curvature="0"
         class="st1"
         d="m 40.38,16.72 h 2.43 v 0.51 c 0.57,-0.44 1.28,-0.67 2,-0.66 0.92,-0.02 1.79,0.39 2.36,1.1 0.66,-0.72 1.6,-1.12 2.58,-1.09 1.66,-0.04 3.03,1.27 3.08,2.92 0,0.09 0,0.18 -0.01,0.27 v 4.89 H 50.37 V 20.1 c 0.08,-0.71 -0.42,-1.35 -1.13,-1.43 -0.05,-0.01 -0.11,-0.01 -0.16,-0.01 -0.5,-0.02 -0.98,0.2 -1.3,0.59 0,0.17 0,0.33 0,0.51 v 4.89 h -2.4 V 20.1 c 0.08,-0.71 -0.42,-1.35 -1.13,-1.43 -0.05,-0.01 -0.11,-0.01 -0.16,-0.01 -0.49,-0.03 -0.97,0.18 -1.28,0.57 v 5.42 h -2.43 z"
         id="path1070" />
      <path
         style="stroke-width:0.132143"
         inkscape:connector-curvature="0"
         class="st1"
         d="m 54.12,14.65 c -0.01,-0.74 0.59,-1.34 1.33,-1.35 0.74,-0.01 1.34,0.59 1.35,1.33 0.01,0.73 -0.58,1.33 -1.31,1.35 -0.74,0.01 -1.34,-0.59 -1.35,-1.33 0,0 0,0 0,0 z m 2.56,10 h -2.43 v -7.93 h 2.43 z"
         id="path1072" />
      <path
         style="stroke-width:0.132143"
         inkscape:connector-curvature="0"
         class="st1"
         d="m 59.3,18.74 h -1.6 v -2 h 1.6 v -2 l 2.44,-0.52 v 2.56 h 2.21 v 2 h -2.21 v 3 c 0,0.71 0.27,1 1,1 0.37,0 0.74,-0.05 1.09,-0.17 v 2 c -0.55,0.15 -1.12,0.23 -1.69,0.24 -1.91,0 -2.88,-0.85 -2.88,-2.52 z"
         id="path1074" />
      <path
         style="stroke-width:0.132143"
         inkscape:connector-curvature="0"
         class="st1"
         d="m 47.65,11.34 c 0,0.92 0.55,1.36 1.55,1.36 0.31,-0.01 0.61,-0.05 0.91,-0.13 v -1.06 c -0.19,0.06 -0.38,0.09 -0.58,0.09 -0.42,0 -0.57,-0.13 -0.57,-0.51 V 9.46 h 1.2 V 8.37 h -1.2 V 6.99 l -1.31,0.28 v 1.1 h -0.86 v 1.09 h 0.86 z m -4.06,0 c 0,-0.28 0.28,-0.42 0.71,-0.42 0.26,0 0.52,0.03 0.77,0.1 v 0.54 c -0.25,0.14 -0.53,0.21 -0.81,0.21 -0.42,0 -0.67,-0.17 -0.67,-0.43 m 0.4,1.35 c 0.42,0.02 0.83,-0.1 1.18,-0.33 v 0.26 h 1.32 V 9.91 c 0,-1 -0.71,-1.61 -1.88,-1.61 -0.69,0 -1.38,0.16 -2,0.46 l 0.47,1 c 0.41,-0.19 0.84,-0.3 1.29,-0.33 0.54,0 0.82,0.21 0.82,0.64 v 0.21 c -0.33,-0.09 -0.66,-0.13 -1,-0.12 -1.1,0 -1.76,0.46 -1.76,1.28 0.03,0.76 0.67,1.36 1.43,1.33 0.04,0 0.08,0 0.12,-0.01 m -7.1,-0.07 h 1.38 v -2.26 h 2.34 v 2.21 h 1.39 V 6.99 H 40.61 V 9.16 H 38.28 V 6.99 H 36.89 Z M 31.59,10.5 c 0,-0.6 0.48,-1.08 1.08,-1.08 v 0 0 c 0.33,-0.01 0.65,0.11 0.9,0.33 v 1.49 c -0.25,0.22 -0.57,0.34 -0.9,0.33 -0.6,0.02 -1.11,-0.45 -1.13,-1.05 0,0 0,0 0,0 v 0 m 2,2.15 h 1.29 V 6.71 l -1.31,0.28 v 1.6 c -1.05,-0.61 -2.4,-0.25 -3.01,0.8 -0.61,1.05 -0.25,2.4 0.8,3.01 0.33,0.19 0.7,0.29 1.08,0.3 0.41,0 0.82,-0.13 1.15,-0.38 z M 27.61,9.39 c 0.41,0.02 0.77,0.29 0.9,0.68 h -1.69 c 0.1,-0.41 0.47,-0.69 0.89,-0.68 m -2.22,1.11 c 0.02,1.24 1.03,2.23 2.27,2.21 0.02,0 0.03,0 0.05,0 0.66,0.04 1.31,-0.18 1.81,-0.61 l -0.87,-0.76 c -0.23,0.22 -0.53,0.34 -0.85,0.33 -0.46,0.01 -0.88,-0.26 -1.05,-0.68 h 3 v -0.33 c 0.16,-1.2 -0.69,-2.3 -1.89,-2.46 -1.2,-0.16 -2.3,0.69 -2.46,1.89 -0.02,0.12 -0.02,0.24 -0.02,0.36 V 10.5 M 23.25,8.18 c 0.35,0 0.64,0.29 0.64,0.64 0,0.35 -0.29,0.64 -0.64,0.64 0,0 0,0 0,0 H 21.88 V 8.18 Z m -2.76,4.46 h 1.39 v -2 h 1.06 l 1.07,2 h 1.55 l -1.24,-2.26 c 0.64,-0.26 1.06,-0.89 1.06,-1.59 -0.01,-1.01 -0.84,-1.82 -1.85,-1.81 -0.05,0 -0.1,0 -0.15,0.01 h -2.89 z"
         id="path1076" />
    </g>
    <text
       id="text842"
       y="730.34979"
       x="787.26117"
       style="font-style:normal;font-weight:normal;font-size:58.1976px;line-height:1.4;font-family:sans-serif;letter-spacing:0px;word-spacing:0px;fill:#ffffff;fill-opacity:1;stroke:none;stroke-width:1"
       xml:space="preserve"><tspan
         style="font-style:normal;font-variant:normal;font-weight:normal;font-stretch:normal;font-size:104.756px;font-family:'Red Hat Display';-inkscape-font-specification:'Red Hat Display';text-align:center;text-anchor:middle;fill:#ffffff;stroke-width:1"
         y="730.34979"
         x="787.26117"
         id="tspan840"
         sodipodi:role="line"><tspan
   id="tspan844"
   style="font-style:normal;font-variant:normal;font-weight:900;font-stretch:normal;font-size:104.756px;font-family:'Red Hat Display';-inkscape-font-specification:'Red Hat Display Heavy';text-align:center;text-anchor:middle;fill:#ffffff;stroke-width:1">SELinux troubleshooting</tspan> </tspan><tspan
         id="tspan852"
         style="font-style:normal;font-variant:normal;font-weight:normal;font-stretch:normal;font-size:81.4766px;font-family:'Red Hat Display';-inkscape-font-specification:'Red Hat Display';text-align:center;text-anchor:middle;fill:#ffffff;stroke-width:1"
         y="854.43964"
         x="787.26117"
         sodipodi:role="line">with the <tspan
   id="tspan846"
   style="font-style:normal;font-variant:normal;font-weight:bold;font-stretch:normal;font-size:81.4766px;font-family:'Red Hat Display';-inkscape-font-specification:'Red Hat Display Bold';text-align:center;text-anchor:middle;fill:#ffffff;stroke-width:1">Web Console</tspan></tspan></text>
  </g>
  <style
     type="text/css"
     id="style1058">
	.st0{fill:#EE0000;}
	.st1{fill:#FFFFFF;}
</style>
</svg>
